<svg xmlns="http://www.w3.org/2000/svg" width="12.046" height="15" viewBox="0 0 12.046 15">
  <path id="Icon_awesome-angle-double-down" data-name="Icon awesome-angle-double-down" d="M5.38,11.5.262,6.382a.9.9,0,0,1,0-1.276l.851-.851a.9.9,0,0,1,1.276,0L6.016,7.883,9.644,4.256a.9.9,0,0,1,1.276,0l.858.847a.9.9,0,0,1,0,1.276L6.659,11.5A.9.9,0,0,1,5.38,11.5Zm1.28,7.226,5.118-5.118a.9.9,0,0,0,0-1.276l-.851-.851a.9.9,0,0,0-1.276,0L6.02,15.105,2.392,11.477a.9.9,0,0,0-1.276,0l-.854.851a.9.9,0,0,0,0,1.276L5.38,18.722A.9.9,0,0,0,6.659,18.725Z" transform="translate(0.004 -3.99)" fill="#d50707"/>
</svg>
