<svg xmlns="http://www.w3.org/2000/svg" width="12.05" height="15" viewBox="0 0 12.05 15">
  <path id="Icon_awesome-angle-double-up" data-name="Icon awesome-angle-double-up" d="M6.661,11.472l5.12,5.117a.9.9,0,0,1,0,1.275l-.851.85a.9.9,0,0,1-1.276,0L6.021,15.091,2.393,18.718a.9.9,0,0,1-1.276,0l-.855-.85a.9.9,0,0,1,0-1.275l5.12-5.117A.9.9,0,0,1,6.661,11.472ZM5.382,4.248.262,9.365a.9.9,0,0,0,0,1.275l.851.85a.9.9,0,0,0,1.276,0L6.018,7.864l3.629,3.627a.9.9,0,0,0,1.276,0l.851-.85a.9.9,0,0,0,0-1.275L6.654,4.248a.9.9,0,0,0-1.272,0Z" transform="translate(0.004 -3.983)" fill="#00800d"/>
</svg>
