<svg xmlns="http://www.w3.org/2000/svg" width="20" height="13.5" viewBox="0 0 20 13.5">
  <path id="Icon_awesome-grip-lines" data-name="Icon awesome-grip-lines" d="M19.375,20.25H.625c-.344,0-.625.506-.625,1.125v2.25c0,.619.281,1.125.625,1.125h18.75c.344,0,.625-.506.625-1.125v-2.25C20,20.756,19.719,20.25,19.375,20.25Zm0-9H.625c-.344,0-.625.506-.625,1.125v2.25c0,.619.281,1.125.625,1.125h18.75c.344,0,.625-.506.625-1.125v-2.25C20,11.756,19.719,11.25,19.375,11.25Z" transform="translate(0 -11.25)" fill="#8a8a8a"/>
</svg>
