<svg xmlns="http://www.w3.org/2000/svg" width="22.994" height="23" viewBox="0 0 22.994 23">
  <path id="Icon_ionic-ios-settings" data-name="Icon ionic-ios-settings" d="M25.6,16a2.959,2.959,0,0,1,1.9-2.76,11.728,11.728,0,0,0-1.419-3.419,3,3,0,0,1-1.2.257,2.952,2.952,0,0,1-2.7-4.156A11.693,11.693,0,0,0,18.757,4.5a2.956,2.956,0,0,1-5.521,0A11.728,11.728,0,0,0,9.817,5.919a2.952,2.952,0,0,1-2.7,4.156,2.9,2.9,0,0,1-1.2-.257A11.988,11.988,0,0,0,4.5,13.243a2.958,2.958,0,0,1,.006,5.521,11.728,11.728,0,0,0,1.419,3.419,2.954,2.954,0,0,1,3.9,3.9A11.8,11.8,0,0,0,13.243,27.5a2.951,2.951,0,0,1,5.509,0,11.728,11.728,0,0,0,3.419-1.419,2.956,2.956,0,0,1,3.9-3.9,11.8,11.8,0,0,0,1.419-3.419A2.973,2.973,0,0,1,25.6,16Zm-9.545,4.784a4.79,4.79,0,1,1,4.79-4.79A4.789,4.789,0,0,1,16.051,20.781Z" transform="translate(-4.5 -4.5)" fill="#282846"/>
</svg>
